<?xml version="1.0" encoding="utf-8"?>
<!-- Generator: Adobe Illustrator 16.2.1, SVG Export Plug-In . SVG Version: 6.00 Build 0)  -->
<!DOCTYPE svg PUBLIC "-//W3C//DTD SVG 1.1//EN" "http://www.w3.org/Graphics/SVG/1.1/DTD/svg11.dtd">
<svg version="1.1" id="Layer_1" xmlns="http://www.w3.org/2000/svg" xmlns:xlink="http://www.w3.org/1999/xlink" x="0px" y="0px"
	 width="679.382px" height="92.784px" viewBox="0 0 679.382 92.784" enable-background="new 0 0 679.382 92.784"
	 xml:space="preserve">
<g>
	<polygon fill="#FFFFFF" points="38.567,39.503 19.126,10.621 18.064,9.204 9.564,9.204 35.044,46.964 35.044,82.569 42.129,82.569 
		42.129,46.948 63.376,14.788 67.208,9.204 58.708,9.204 	"/>
	<path fill="#FFFFFF" d="M121.75,9.204c-18.012,0-32.666,16.457-32.666,36.684c0,20.225,14.653,36.681,32.666,36.681
		c18.011,0,32.663-16.456,32.663-36.681C154.413,25.661,139.76,9.204,121.75,9.204z M121.75,75.485
		c-14.106,0-25.582-13.278-25.582-29.597c0-16.321,11.476-29.598,25.582-29.598c14.104,0,25.58,13.277,25.58,29.598
		C147.329,62.207,135.854,75.485,121.75,75.485z"/>
	<path fill="#FFFFFF" d="M243.273,42.346h-32.462v7.083h28.816c-1.188,14.364-12.326,26.056-25.376,26.056
		c-14.161,0-25.681-13.278-25.681-29.597c0-16.321,11.521-29.598,25.928-29.599c9.964,0,18.563,6.274,21.675,12.318l1.039,1.741
		h7.639l-2.433-5.204c-3.966-7.729-15.103-15.942-28.167-15.941c-18.067,0-32.765,16.457-32.765,36.684
		c0,20.225,14.698,36.681,32.765,36.681c17.956,0,32.564-16.456,32.564-36.681C246.815,43.869,245.292,42.346,243.273,42.346z"/>
	<path fill="#FFFFFF" d="M337.493,9.787l-0.171-0.575c-0.312-0.729-0.875-1.309-1.571-1.664l-0.035-0.215l-0.122,0.139
		c-1.527-0.684-3.614-0.124-4.509,1.292l-60.27,58.724l8.884-0.159l51.949-49.003l-0.092,58.306h-69.86v5.961h72.854l0.01-0.021
		l0.404-0.039c0.773-0.169,1.45-0.61,1.931-1.225l0.106-0.139c0.962-1.368,0.491-4.538,0.491-6.385V9.787z"/>
	<path fill="#FFFFFF" d="M391.021,11.743h-0.099h-25.106c-0.602,0-1.004,0.401-1.004,1.006v66.278c0,0.603,0.402,1.004,1.004,1.004
		h25.106h0.099c15.767-1.307,27.617-16.671,26.011-34.143C418.638,28.414,406.787,13.049,391.021,11.743z M390.922,78.023h-24.103
		V13.752h24.103c14.661,1.304,25.507,15.665,24.1,32.034v0.2C416.429,62.356,405.583,76.716,390.922,78.023z"/>
	<path fill="#FFFFFF" d="M479.307,11.743c-16.471,0-30.128,15.164-30.128,34.146c0,18.979,13.657,34.143,30.128,34.143
		c16.569,0,30.125-15.164,30.125-34.143C509.432,26.907,495.876,11.743,479.307,11.743z M479.307,78.023
		c-15.467,0-28.12-14.361-28.12-32.135c0-17.777,12.653-32.136,28.12-32.136c15.565,0,28.117,14.359,28.117,32.136
		C507.424,63.662,494.872,78.023,479.307,78.023z"/>
	<path fill="#FFFFFF" d="M543.69,29.318c0-8.737,9.037-15.566,19.983-15.566c10.947,0,19.984,6.829,19.984,15.566v1.004h2.008
		v-1.004c0-9.541-9.64-17.576-21.992-17.576c-12.352,0-21.993,8.035-21.993,17.576c0.102,17.574,44.087,17.373,44.087,33.139
		c0,8.536-10.343,15.565-22.094,15.565c-12.049,0-22.092-6.931-22.092-15.565v-1.004h-2.008v1.004
		c0,9.438,10.442,17.573,24.1,17.573c13.356,0,24.102-8.234,24.102-17.573C587.877,44.782,543.69,44.782,543.69,29.318z"/>
	<path fill="#FFFFFF" d="M669.131,13.752h1.004v-2.01h-1.004h-46.194c-0.602,0-1.003,0.401-1.003,1.006v32.135v2.008v32.135
		c0,0.603,0.401,1.004,1.003,1.004h46.194h1.004v-2.008h-1.004h-45.19V46.892h32.837h1.007v-2.008h-1.007H623.94V13.752H669.131z"/>
	<circle fill="#FFFFFF" cx="279.541" cy="46.21" r="4.991"/>
</g>
</svg>
